<?xml version="1.0" standalone="no"?>
<!DOCTYPE svg PUBLIC "-//W3C//DTD SVG 20010904//EN"
 "http://www.w3.org/TR/2001/REC-SVG-20010904/DTD/svg10.dtd">
<svg version="1.0" xmlns="http://www.w3.org/2000/svg"
 width="700.000000pt" height="700.000000pt" viewBox="0 0 700.000000 700.000000"
 preserveAspectRatio="xMidYMid meet">
<metadata>
Created by potrace 1.14, written by Peter Selinger 2001-2017
</metadata>
<g transform="translate(0.000000,700.000000) scale(0.100000,-0.100000)"
fill="#ffffff" stroke="none">
<path d="M3200 6990 c-294 -30 -534 -79 -787 -161 -804 -261 -1499 -822 -1932
-1557 -85 -144 -193 -366 -246 -507 -21 -55 -41 -109 -46 -120 -31 -77 -95
-319 -128 -485 -44 -227 -55 -353 -56 -645 0 -280 3 -329 31 -525 123 -849
557 -1622 1224 -2180 541 -453 1228 -737 1930 -798 110 -9 521 -9 625 0 355
33 730 126 1050 263 1032 441 1790 1341 2043 2425 27 116 33 142 46 225 36
218 41 300 41 600 -1 333 -28 551 -105 850 -240 924 -828 1690 -1668 2175
-296 170 -722 328 -1032 384 -41 7 -104 18 -125 23 -11 2 -54 8 -95 13 -41 5
-93 12 -115 15 -65 9 -573 13 -655 5z"/>
</g>
</svg>
